<svg xmlns="http://www.w3.org/2000/svg" version="1.1" xmlns:xlink="http://www.w3.org/1999/xlink" xmlns:svgjs="http://svgjs.dev/svgjs" width="1500" height="1500" viewBox="0 0 1500 1500"><rect width="1500" height="1500" fill="#000000"></rect><g transform="matrix(0.6666666666666666,0,0,0.6666666666666666,249.39393939393938,623.889764129817)"><svg viewBox="0 0 396 100" data-background-color="#000000" preserveAspectRatio="xMidYMid meet" height="378" width="1500" xmlns="http://www.w3.org/2000/svg" xmlns:xlink="http://www.w3.org/1999/xlink"><g id="tight-bounds" transform="matrix(1,0,0,1,0.2400000000000091,0.043744392929795595)"><svg viewBox="0 0 395.52 99.91251121414038" height="99.91251121414038" width="395.52"><g><svg viewBox="0 0 395.52 99.91251121414038" height="99.91251121414038" width="395.52"><g transform="matrix(1,0,0,1,0,51.52760104769017)"><svg viewBox="0 0 395.52 48.38491016645021" height="48.38491016645021" width="395.52"><g id="textblocktransform"><svg viewBox="0 0 395.52 48.38491016645021" height="48.38491016645021" width="395.52" id="textblock"><g><svg viewBox="0 0 395.52 48.38491016645021" height="48.38491016645021" width="395.52"><g transform="matrix(1,0,0,1,0,0)"><svg width="395.52" viewBox="1.740613732195154 -16.033942619300642 485.96332626780486 59.44904261930064" height="48.38491016645021" data-palette-color="url(#9c09caf1-84ae-4535-99d0-4ceac9abc9a6)"></svg></g></svg></g></svg></g></svg></g><g transform="matrix(1,0,0,1,173.5665539912779,0)"><svg viewBox="0 0 48.38689201744416 48.38491016645021" height="48.38491016645021" width="48.38689201744416"><g><svg xmlns="http://www.w3.org/2000/svg" xmlns:xlink="http://www.w3.org/1999/xlink" version="1.1" x="0" y="0" viewBox="25.584 24.502 48.83 48.828" enable-background="new 0 0 100 100" xml:space="preserve" height="48.38491016645021" width="48.38689201744416" class="icon-icon-0" data-fill-palette-color="accent" id="icon-0"></svg></g></svg></g><g></g></svg></g><defs></defs><mask id="3ccad2a3-ea66-476e-bc46-7a9a6bd44a29"><g id="SvgjsG1602"><svg viewBox="0 0 395.52 99.91251121414038" height="99.91251121414038" width="395.52"><g><svg viewBox="0 0 395.52 99.91251121414038" height="99.91251121414038" width="395.52"><g transform="matrix(1,0,0,1,0,51.52760104769017)"><svg viewBox="0 0 395.52 48.38491016645021" height="48.38491016645021" width="395.52"><g id="SvgjsG1601"><svg viewBox="0 0 395.52 48.38491016645021" height="48.38491016645021" width="395.52" id="SvgjsSvg1600"><g><svg viewBox="0 0 395.52 48.38491016645021" height="48.38491016645021" width="395.52"><g transform="matrix(1,0,0,1,0,0)"><svg width="395.52" viewBox="1.740613732195154 -16.033942619300642 485.96332626780486 59.44904261930064" height="48.38491016645021" data-palette-color="url(#9c09caf1-84ae-4535-99d0-4ceac9abc9a6)"><path d="M30.34-6.535v0c-2.407-0.358-4.001-1.808-4.783-4.35v0l-0.296 1.998c-0.318 2.002-1.722 3.653-4.214 4.954v0l-4.512 2.262c-2.702 1.398-4.232 3.304-4.59 5.717-0.36 2.42 0.48 4.274 2.52 5.561v0c0.702 0.448 1.6 0.753 2.695 0.916v0c0.046 0.007 0.092 0.014 0.138 0.021v0l-0.178 1.197c-0.033-0.005-0.056-0.008-0.069-0.011v0c-2.519-0.374-4.311-1.402-5.375-3.083v0c-0.892-1.393-1.197-3.036-0.916-4.928v0c0.404-2.717 2.093-4.852 5.067-6.405v0l4.488-2.245c2.267-1.153 3.514-2.531 3.739-4.135v0l0.641-4.313c-1.147-0.582-2.65-1.011-4.51-1.287-1.86-0.276-3.715-0.124-5.568 0.457-1.845 0.575-3.542 1.543-5.092 2.903v0c-3.374 2.976-5.444 7.04-6.209 12.19-0.765 5.15-0.064 9.591 2.105 13.324v0c1.46 2.515 3.517 4.428 6.173 5.739v0c1.351 0.659 2.785 1.101 4.302 1.327 1.51 0.224 2.88 0.256 4.11 0.095 1.23-0.161 2.384-0.438 3.46-0.83v0c1.951-0.748 3.663-1.788 5.134-3.119 1.478-1.331 2.593-2.644 3.346-3.941v0l1.043 0.599c-1.325 2.297-3.288 4.3-5.887 6.01v0c-3.383 2.22-6.964 3.05-10.743 2.488-3.779-0.561-6.8-1.883-9.065-3.965-2.265-2.082-3.835-4.651-4.709-7.706-0.873-3.062-1.069-6.208-0.589-9.439 0.48-3.231 1.31-5.982 2.49-8.254 1.186-2.264 2.604-4.122 4.256-5.575 1.645-1.454 3.472-2.48 5.482-3.077 2.009-0.591 3.996-0.741 5.961-0.449 1.965 0.292 3.403 0.664 4.312 1.116 0.903 0.458 1.491 0.828 1.766 1.112v0c0.371 3.58 1.787 5.553 4.246 5.918 2.466 0.366 4.227-0.871 5.284-3.714v0l1.122 0.409c-1.271 3.471-3.462 4.975-6.575 4.513zM48.962 21.566l-7.676 4.519c-2.534-3.63-3.565-7.263-3.093-10.898v0c0.182-1.402 0.605-3.676 1.269-6.824 0.67-3.14 1.104-5.473 1.302-7v0c0.294-2.268-0.41-4.275-2.113-6.022v0l0.849-0.868c1.626 1.616 2.48 3.347 2.563 5.193v0c0.025 0.588-0.02 1.318-0.133 2.191v0c-0.16 1.236-0.576 3.424-1.245 6.564-0.669 3.133-1.08 5.295-1.235 6.485v0c-0.443 3.411 0.298 6.59 2.221 9.535v0l7.489-4.403 3.031-23.354 1.21 0.157-3.201 24.664c-0.208 1.607 0.115 2.973 0.97 4.099v0c0.233 0.326 0.469 0.585 0.706 0.777v0l-0.805 0.924c-1.085-0.86-1.771-2.126-2.059-3.797v0c-0.103-0.605-0.12-1.252-0.05-1.942zM61.51 3.262l5.822-4.699c1.428 2.062 2.405 4.161 2.931 6.298v0l-1.075 0.658c-0.375-1.823-1.092-3.566-2.151-5.229v0l-5.619 4.603-2.682 22.692-1.212-0.144 2.73-23.099c0.238-2.013-0.336-3.631-1.722-4.855v0l0.797-0.943c1.34 1.105 2.067 2.678 2.181 4.718zM81.542 25.67l0.615 1.093-5.75 3.558c-1.7-0.709-2.98-1.727-3.841-3.055-0.862-1.321-1.188-2.943-0.979-4.865v0l1.389-12.724c0.184-1.69 0.614-3.105 1.288-4.246 0.668-1.148 1.705-2.107 3.11-2.879v0l4.535-2.473 3.068 7.749-11.309 6.753-0.868 7.953c-0.328 3.002 0.818 5.136 3.436 6.4v0zM74.189 9.809l-0.354 3.241 9.722-5.669-2.22-5.654-3.364 1.886c-2.203 1.195-3.464 3.26-3.784 6.196zM104.239 32.101l-0.789 0.921c-2.106-1.903-3.031-4.229-2.775-6.978v0l2.156-23.159 1.214 0.113-2.155 23.16c-0.103 1.102 0.009 2.13 0.335 3.084 0.326 0.961 0.997 1.914 2.014 2.859zM106.881-4.381l-2.568 3.959-1.101-0.464 2.252-4.24zM112.727 8.631l7.47-4.899c2.699 3.509 3.897 7.09 3.594 10.744v0c-0.118 1.422-0.429 3.597-0.933 6.525-0.504 2.935-0.819 5.16-0.945 6.675v0c-0.188 2.266 0.612 4.238 2.399 5.918v0l-0.808 0.907c-1.699-1.539-2.635-3.229-2.81-5.07v0c-0.045-0.586-0.031-1.317 0.041-2.194v0c0.105-1.262 0.408-3.351 0.912-6.266 0.503-2.922 0.804-4.974 0.902-6.157v0c0.276-3.329-0.61-6.469-2.66-9.422v0l-7.289 4.764-1.885 22.722-1.206-0.1 2.008-24.197c0.168-2.02-0.466-3.621-1.9-4.804v0l0.762-0.96c1.768 1.431 2.55 3.369 2.348 5.814zM137.496 34.5l-0.383 1.165c-3.675-1.331-5.376-3.914-5.104-7.751v0l1.335-19.053-0.998-0.071c-0.791-0.056-1.788 0.327-2.989 1.151v0c-0.31 0.225-0.625 0.43-0.946 0.614v0l-0.606-1.066c2.001-1.355 3.544-1.994 4.628-1.916v0l1.067 0.076 2.851-7.818 1.133 0.422-2.727 7.485 6.653 0.473-0.086 1.217-6.773-0.482-0.748 10.514c-0.185 2.6-0.386 5.483-0.604 8.649-0.212 3.166 1.221 5.297 4.297 6.391zM153.716 31.514l0.665 1.064-5.579 3.819c-1.731-0.629-3.057-1.587-3.979-2.873-0.922-1.28-1.323-2.885-1.202-4.814v0l0.797-12.775c0.106-1.697 0.469-3.13 1.09-4.301 0.615-1.177 1.606-2.184 2.974-3.02v0l4.416-2.681 3.423 7.599-10.984 7.269-0.499 7.985c-0.188 3.014 1.055 5.092 3.729 6.234v0zM145.636 16.011l-0.203 3.253 9.449-6.113-2.479-5.545-3.274 2.04c-2.145 1.296-3.309 3.417-3.493 6.365zM162.872 11.94l5.5-5.072c1.561 1.963 2.674 3.994 3.339 6.09v0l-1.029 0.728c-0.495-1.795-1.325-3.486-2.491-5.075v0l-5.303 4.962-1.181 22.82-1.219-0.063 1.203-23.229c0.105-2.024-0.575-3.601-2.039-4.732v0l0.733-0.994c1.409 1.014 2.239 2.536 2.487 4.565zM177.075 12.762l7.26-5.207c2.843 3.393 4.19 6.921 4.039 10.585v0c-0.058 1.425-0.278 3.612-0.659 6.558-0.381 2.954-0.603 5.19-0.666 6.709v0c-0.093 2.271 0.788 4.209 2.644 5.813v0l-0.769 0.939c-1.761-1.467-2.768-3.116-3.02-4.948v0c-0.069-0.583-0.086-1.315-0.05-2.194v0c0.052-1.266 0.268-3.365 0.649-6.298 0.381-2.94 0.596-5.003 0.644-6.189v0c0.137-3.337-0.88-6.438-3.051-9.303v0l-7.084 5.064-0.934 22.781-1.209-0.05 0.995-24.26c0.083-2.025-0.616-3.598-2.098-4.72v0l0.721-0.991c1.826 1.356 2.689 3.26 2.588 5.711zM209.004 37.944l-0.728 0.97c-1.781-1.398-2.813-3.059-3.099-4.982v0l-6.607 4.702c-1.969-0.41-3.288-1.395-3.957-2.955v0c-0.225-0.527-0.327-1.14-0.307-1.839v0c0.001-0.047 0.002-0.087 0.003-0.12v0l0.372-12.935c0.088-3.065 1.256-5.403 3.503-7.012v0l7.885-5.616 0.885 0.516-0.675 23.49c-0.032 1.106 0.146 2.125 0.532 3.057 0.387 0.938 1.117 1.846 2.193 2.724zM195.891 20.82l-0.372 12.935c-0.052 1.799 0.855 2.986 2.718 3.559v0l6.842-4.845 0.654-22.741-6.693 4.9c-0.947 0.686-1.697 1.505-2.252 2.456-0.554 0.944-0.853 2.19-0.897 3.736zM222.035 37.956l-0.32 1.184c-3.741-1.13-5.579-3.619-5.514-7.464v0l0.304-19.098-1-0.017c-0.793-0.013-1.767 0.423-2.922 1.311v0c-0.297 0.242-0.601 0.463-0.912 0.664v0l-0.662-1.031c1.925-1.461 3.431-2.182 4.517-2.164v0l1.07 0.018 2.425-7.96 1.154 0.36-2.319 7.622 6.669 0.113-0.021 1.22-6.789-0.115-0.179 10.538c-0.044 2.606-0.09 5.496-0.137 8.669-0.041 3.173 1.505 5.223 4.636 6.15zM232.578 38.283l-0.711 0.982c-2.255-1.724-3.367-3.967-3.337-6.726v0l0.251-23.259 1.22 0.013-0.251 23.259c-0.012 1.107 0.184 2.122 0.587 3.046 0.403 0.931 1.15 1.826 2.241 2.685zM232.224 1.707l-2.235 4.156-1.137-0.373 1.898-4.409zM239.837 12.527l5.14-3.877c2.755 1.84 4.13 4 4.124 6.48v0l-0.032 13.11c-0.004 1.64-0.421 2.929-1.25 3.867v0c-0.361 0.406-0.832 0.828-1.413 1.266v0l-7.975 5.91-1.308-0.653 0.05-20.3c0.006-2.547 0.894-4.481 2.664-5.803zM244.973 10.129l-4.428 3.4c-1.436 1.063-2.157 2.665-2.162 4.804v0l-0.048 19.54 7.393-5.352c0.842-0.618 1.41-1.27 1.705-1.955 0.295-0.693 0.444-1.469 0.446-2.329v0l0.032-13.11c0.005-1.933-0.974-3.599-2.938-4.998zM257.085 14.146l6.98-5.576c3.015 3.241 4.543 6.694 4.583 10.361v0c0.015 1.427-0.091 3.621-0.319 6.584-0.228 2.969-0.333 5.214-0.317 6.733v0c0.025 2.273 1.005 4.163 2.942 5.669v0l-0.719 0.978c-1.835-1.373-2.926-2.968-3.273-4.785v0c-0.1-0.579-0.154-1.308-0.163-2.188v0c-0.014-1.267 0.093-3.375 0.321-6.324 0.228-2.956 0.335-5.027 0.323-6.214v0c-0.036-3.34-1.213-6.384-3.53-9.132v0l-6.811 5.424 0.247 22.799-1.21 0.013-0.263-24.279c-0.022-2.027-0.802-3.562-2.34-4.605v0l0.669-1.027c1.894 1.26 2.854 3.116 2.88 5.569zM290.276 37.639l-0.677 1.006c-1.851-1.304-2.968-2.909-3.352-4.814v0l-6.355 5.038c-1.988-0.307-3.356-1.223-4.105-2.746v0c-0.252-0.514-0.386-1.121-0.402-1.821v0c-0.001-0.047-0.002-0.087-0.003-0.12v0l-0.299-12.936c-0.071-3.066 0.974-5.461 3.135-7.185v0l7.583-6.016 0.911 0.469 0.543 23.493c0.026 1.106 0.256 2.115 0.69 3.025 0.435 0.917 1.212 1.786 2.331 2.607zM276.293 21.218l0.299 12.936c0.042 1.8 1.008 2.937 2.9 3.414v0l6.581-5.193-0.525-22.744-6.431 5.24c-0.91 0.735-1.617 1.591-2.121 2.57-0.504 0.972-0.739 2.231-0.703 3.777zM299.989-3.742l0.646 1.08c-2.357 1.357-3.873 3.345-4.548 5.961v0c-0.231 0.888-0.33 1.842-0.297 2.861v0l1.026 31.493-1.219 0.04-1.027-31.493c-0.106-3.245 0.975-5.992 3.244-8.24v0c0.672-0.669 1.397-1.236 2.175-1.702zM317.238 12.941l6.969-6.376c3.263 3.286 4.988 6.84 5.173 10.662v0l0.423 8.7c0.123 2.53-0.503 5.371-1.879 8.521-1.369 3.15-3.203 6.139-5.502 8.967v0l-0.938-0.765c3.436-4.158 5.667-8.375 6.694-12.65v0c0.332-1.411 0.467-2.749 0.406-4.014v0l-0.422-8.7c-0.164-3.369-1.484-6.376-3.962-9.018v0l-6.885 6.261 1.08 22.234-1.189 0.057-1.528-31.473c-0.158-3.256 0.869-6.019 3.082-8.289v0c0.661-0.68 1.377-1.258 2.148-1.736v0l0.663 1.069c-2.335 1.395-3.819 3.406-4.453 6.033v0c-0.217 0.892-0.301 1.847-0.251 2.866v0zM346.571 30.725l0.791 0.974-5.066 4.478c-1.795-0.411-3.229-1.198-4.302-2.362-1.073-1.157-1.668-2.7-1.786-4.63v0l-0.782-12.776c-0.104-1.697 0.08-3.164 0.553-4.402 0.465-1.244 1.325-2.365 2.579-3.364v0l4.052-3.203 4.333 7.119-10.006 8.567 0.489 7.985c0.184 3.014 1.674 4.924 4.468 5.728v0zM336.644 16.335l0.199 3.254 8.625-7.231-3.143-5.197-2.998 2.427c-1.969 1.55-2.863 3.799-2.683 6.747zM367.667 33.425l-0.626 1.038c-1.913-1.211-3.108-2.759-3.586-4.642v0l-6.099 5.346c-2-0.209-3.412-1.055-4.235-2.54v0c-0.277-0.501-0.441-1.101-0.492-1.799v0c-0.003-0.047-0.006-0.086-0.008-0.12v0l-0.938-12.906c-0.222-3.059 0.703-5.502 2.776-7.33v0l7.276-6.384 0.933 0.423 1.704 23.438c0.08 1.104 0.36 2.099 0.838 2.987 0.479 0.894 1.298 1.724 2.457 2.489zM352.889 17.715l0.939 12.906c0.13 1.795 1.152 2.884 3.064 3.266v0l6.317-5.512-1.649-22.691-6.164 5.552c-0.873 0.779-1.536 1.669-1.991 2.671-0.456 0.996-0.627 2.265-0.516 3.808zM375.323-8.386l0.698 1.046c-2.287 1.472-3.703 3.532-4.248 6.179v0c-0.187 0.898-0.239 1.856-0.155 2.873v0l2.582 31.404-1.216 0.1-2.582-31.404c-0.266-3.236 0.678-6.032 2.832-8.391v0c0.638-0.701 1.334-1.304 2.089-1.807zM389.831 31.285l-0.192 1.212c-3.841-0.724-5.935-3.001-6.281-6.832v0l-1.741-19.02-0.996 0.09c-0.79 0.071-1.712 0.61-2.765 1.615v0c-0.27 0.272-0.548 0.525-0.835 0.759v0l-0.77-0.955c1.758-1.658 3.178-2.537 4.26-2.634v0l1.066-0.097 1.56-8.174 1.186 0.235-1.491 7.826 6.643-0.601 0.11 1.215-6.763 0.612 0.95 10.497c0.235 2.596 0.499 5.474 0.791 8.634 0.299 3.159 2.055 5.032 5.268 5.618zM395.404 7.225l6.636-6.721c3.426 3.116 5.328 6.578 5.708 10.385v0l0.863 8.668c0.251 2.521-0.23 5.389-1.444 8.605-1.207 3.215-2.887 6.294-5.04 9.235v0l-0.976-0.717c3.22-4.327 5.235-8.651 6.044-12.973v0c0.26-1.426 0.327-2.769 0.202-4.03v0l-0.863-8.667c-0.334-3.357-1.806-6.292-4.415-8.805v0l-6.558 6.602 2.207 22.15-1.185 0.118-3.123-31.354c-0.323-3.244 0.563-6.056 2.657-8.435v0c0.626-0.712 1.312-1.327 2.058-1.843v0l0.716 1.034c-2.261 1.512-3.642 3.595-4.141 6.251v0c-0.171 0.901-0.207 1.86-0.106 2.875v0zM427.041 8.237l1.529 12.709c0.361 2.998 1.959 4.817 4.796 5.456v0l4.428-4.38 0.847 0.926-4.795 4.766c-1.816-0.305-3.294-1.007-4.434-2.106-1.139-1.092-1.823-2.598-2.054-4.517v0l-1.528-12.708c-0.203-1.688-0.105-3.163 0.294-4.427 0.391-1.269 1.184-2.439 2.378-3.509v0l3.857-3.435 4.623 6.696-0.8 0.64-4.007-5.602-2.85 2.599c-1.875 1.662-2.636 3.96-2.284 6.892zM458.793 23.511l-0.565 1.073c-1.98-1.097-3.264-2.572-3.851-4.425v0l-5.776 5.693c-2.009-0.092-3.468-0.854-4.376-2.287v0c-0.306-0.484-0.505-1.073-0.596-1.768v0c-0.006-0.046-0.011-0.086-0.016-0.119v0l-1.691-12.829c-0.401-3.04 0.38-5.534 2.343-7.48v0l6.891-6.799 0.956 0.369 3.071 23.298c0.145 1.097 0.482 2.075 1.012 2.933 0.531 0.865 1.397 1.645 2.598 2.341zM443.122 8.691l1.691 12.829c0.235 1.785 1.319 2.812 3.25 3.082v0l5.984-5.872-2.972-22.555-5.829 5.902c-0.826 0.828-1.436 1.756-1.832 2.783-0.397 1.021-0.494 2.298-0.292 3.831zM461.708-1.406l4.418-6.038c1.91 1.625 3.394 3.403 4.452 5.332v0l-0.87 0.913c-0.832-1.665-1.973-3.165-3.423-4.5v0l-4.247 5.893 3.244 22.618-1.208 0.173-3.301-23.024c-0.288-2.006-1.259-3.423-2.913-4.25v0l0.527-1.116c1.579 0.723 2.686 2.056 3.321 3.999zM486.828 15.098l0.876 0.898-4.642 4.916c-1.825-0.248-3.324-0.902-4.497-1.964-1.173-1.055-1.905-2.538-2.197-4.45v0l-1.93-12.653c-0.256-1.681-0.205-3.158 0.153-4.434 0.351-1.281 1.106-2.475 2.266-3.583v0l3.746-3.555 4.957 6.699-9.192 9.434 1.206 7.908c0.455 2.985 2.111 4.753 4.967 5.302v0zM475.644 1.661l0.492 3.223 7.937-7.979-3.599-4.893-2.766 2.688c-1.821 1.721-2.509 4.041-2.064 6.961z" opacity="1" transform="matrix(1,0,0,1,0,0)" fill="white" class="wordmark-text-0" id="SvgjsPath1599"></path></svg></g></svg></g></svg></g></svg></g><g transform="matrix(1,0,0,1,173.5665539912779,0)"><svg viewBox="0 0 48.38689201744416 48.38491016645021" height="48.38491016645021" width="48.38689201744416"><g><svg xmlns="http://www.w3.org/2000/svg" xmlns:xlink="http://www.w3.org/1999/xlink" version="1.1" x="0" y="0" viewBox="25.584 24.502 48.83 48.828" enable-background="new 0 0 100 100" xml:space="preserve" height="48.38491016645021" width="48.38689201744416" class="icon-icon-0" data-fill-palette-color="accent" id="SvgjsSvg1598"><path d="M50 24.502C36.516 24.502 25.584 35.434 25.584 48.916 25.584 62.404 36.516 73.33 50 73.33 63.486 73.33 74.414 62.404 74.414 48.916 74.414 35.434 63.486 24.502 50 24.502M66.82 53.232H54.363V65.699H45.732V53.232H33.273V44.601H45.732V32.143H54.363V44.602H66.82z" fill="black"></path></svg></g></svg></g><g></g></svg></g><defs><mask></mask></defs></svg><rect width="395.52" height="99.91251121414038" fill="black" stroke="none" visibility="hidden"></rect></g></mask><linearGradient x1="0" x2="1" y1="0.5" y2="0.5" id="9c09caf1-84ae-4535-99d0-4ceac9abc9a6"><stop stop-color="#ffa62e" offset="0"></stop><stop stop-color="#f71b3d" offset="1"></stop></linearGradient><rect width="395.52" height="99.91251121414038" fill="#ffffff" mask="url(#3ccad2a3-ea66-476e-bc46-7a9a6bd44a29)" data-fill-palette-color="primary"></rect><mask id="d3df199c-b21c-4377-8d8f-d1bb93421c26"><g id="SvgjsG1621"><svg viewBox="0 0 395.52 99.91251121414038" height="99.91251121414038" width="395.52"><g><svg viewBox="0 0 395.52 99.91251121414038" height="99.91251121414038" width="395.52"><g transform="matrix(1,0,0,1,0,51.52760104769017)"><svg viewBox="0 0 395.52 48.38491016645021" height="48.38491016645021" width="395.52"><g id="SvgjsG1620"><svg viewBox="0 0 395.52 48.38491016645021" height="48.38491016645021" width="395.52" id="SvgjsSvg1619"><g><svg viewBox="0 0 395.52 48.38491016645021" height="48.38491016645021" width="395.52"><g transform="matrix(1,0,0,1,0,0)"><svg width="395.52" viewBox="1.740613732195154 -16.033942619300642 485.96332626780486 59.44904261930064" height="48.38491016645021" data-palette-color="url(#9c09caf1-84ae-4535-99d0-4ceac9abc9a6)"></svg></g></svg></g></svg></g></svg></g><g transform="matrix(1,0,0,1,173.5665539912779,0)"><svg viewBox="0 0 48.38689201744416 48.38491016645021" height="48.38491016645021" width="48.38689201744416"><g><svg xmlns="http://www.w3.org/2000/svg" xmlns:xlink="http://www.w3.org/1999/xlink" version="1.1" x="0" y="0" viewBox="25.584 24.502 48.83 48.828" enable-background="new 0 0 100 100" xml:space="preserve" height="48.38491016645021" width="48.38689201744416" class="icon-icon-0" data-fill-palette-color="accent" id="SvgjsSvg1618"><path d="M50 24.502C36.516 24.502 25.584 35.434 25.584 48.916 25.584 62.404 36.516 73.33 50 73.33 63.486 73.33 74.414 62.404 74.414 48.916 74.414 35.434 63.486 24.502 50 24.502M66.82 53.232H54.363V65.699H45.732V53.232H33.273V44.601H45.732V32.143H54.363V44.602H66.82z" fill="white"></path></svg></g></svg></g><g></g></svg></g><defs><mask></mask></defs><mask><g id="SvgjsG1617"><svg viewBox="0 0 395.52 99.91251121414038" height="99.91251121414038" width="395.52"><g><svg viewBox="0 0 395.52 99.91251121414038" height="99.91251121414038" width="395.52"><g transform="matrix(1,0,0,1,0,51.52760104769017)"><svg viewBox="0 0 395.52 48.38491016645021" height="48.38491016645021" width="395.52"><g id="SvgjsG1616"><svg viewBox="0 0 395.52 48.38491016645021" height="48.38491016645021" width="395.52" id="SvgjsSvg1615"><g><svg viewBox="0 0 395.52 48.38491016645021" height="48.38491016645021" width="395.52"><g transform="matrix(1,0,0,1,0,0)"><svg width="395.52" viewBox="1.740613732195154 -16.033942619300642 485.96332626780486 59.44904261930064" height="48.38491016645021" data-palette-color="url(#9c09caf1-84ae-4535-99d0-4ceac9abc9a6)"><path d="M30.34-6.535v0c-2.407-0.358-4.001-1.808-4.783-4.35v0l-0.296 1.998c-0.318 2.002-1.722 3.653-4.214 4.954v0l-4.512 2.262c-2.702 1.398-4.232 3.304-4.59 5.717-0.36 2.42 0.48 4.274 2.52 5.561v0c0.702 0.448 1.6 0.753 2.695 0.916v0c0.046 0.007 0.092 0.014 0.138 0.021v0l-0.178 1.197c-0.033-0.005-0.056-0.008-0.069-0.011v0c-2.519-0.374-4.311-1.402-5.375-3.083v0c-0.892-1.393-1.197-3.036-0.916-4.928v0c0.404-2.717 2.093-4.852 5.067-6.405v0l4.488-2.245c2.267-1.153 3.514-2.531 3.739-4.135v0l0.641-4.313c-1.147-0.582-2.65-1.011-4.51-1.287-1.86-0.276-3.715-0.124-5.568 0.457-1.845 0.575-3.542 1.543-5.092 2.903v0c-3.374 2.976-5.444 7.04-6.209 12.19-0.765 5.15-0.064 9.591 2.105 13.324v0c1.46 2.515 3.517 4.428 6.173 5.739v0c1.351 0.659 2.785 1.101 4.302 1.327 1.51 0.224 2.88 0.256 4.11 0.095 1.23-0.161 2.384-0.438 3.46-0.83v0c1.951-0.748 3.663-1.788 5.134-3.119 1.478-1.331 2.593-2.644 3.346-3.941v0l1.043 0.599c-1.325 2.297-3.288 4.3-5.887 6.01v0c-3.383 2.22-6.964 3.05-10.743 2.488-3.779-0.561-6.8-1.883-9.065-3.965-2.265-2.082-3.835-4.651-4.709-7.706-0.873-3.062-1.069-6.208-0.589-9.439 0.48-3.231 1.31-5.982 2.49-8.254 1.186-2.264 2.604-4.122 4.256-5.575 1.645-1.454 3.472-2.48 5.482-3.077 2.009-0.591 3.996-0.741 5.961-0.449 1.965 0.292 3.403 0.664 4.312 1.116 0.903 0.458 1.491 0.828 1.766 1.112v0c0.371 3.58 1.787 5.553 4.246 5.918 2.466 0.366 4.227-0.871 5.284-3.714v0l1.122 0.409c-1.271 3.471-3.462 4.975-6.575 4.513zM48.962 21.566l-7.676 4.519c-2.534-3.63-3.565-7.263-3.093-10.898v0c0.182-1.402 0.605-3.676 1.269-6.824 0.67-3.14 1.104-5.473 1.302-7v0c0.294-2.268-0.41-4.275-2.113-6.022v0l0.849-0.868c1.626 1.616 2.48 3.347 2.563 5.193v0c0.025 0.588-0.02 1.318-0.133 2.191v0c-0.16 1.236-0.576 3.424-1.245 6.564-0.669 3.133-1.08 5.295-1.235 6.485v0c-0.443 3.411 0.298 6.59 2.221 9.535v0l7.489-4.403 3.031-23.354 1.21 0.157-3.201 24.664c-0.208 1.607 0.115 2.973 0.97 4.099v0c0.233 0.326 0.469 0.585 0.706 0.777v0l-0.805 0.924c-1.085-0.86-1.771-2.126-2.059-3.797v0c-0.103-0.605-0.12-1.252-0.05-1.942zM61.51 3.262l5.822-4.699c1.428 2.062 2.405 4.161 2.931 6.298v0l-1.075 0.658c-0.375-1.823-1.092-3.566-2.151-5.229v0l-5.619 4.603-2.682 22.692-1.212-0.144 2.73-23.099c0.238-2.013-0.336-3.631-1.722-4.855v0l0.797-0.943c1.34 1.105 2.067 2.678 2.181 4.718zM81.542 25.67l0.615 1.093-5.75 3.558c-1.7-0.709-2.98-1.727-3.841-3.055-0.862-1.321-1.188-2.943-0.979-4.865v0l1.389-12.724c0.184-1.69 0.614-3.105 1.288-4.246 0.668-1.148 1.705-2.107 3.11-2.879v0l4.535-2.473 3.068 7.749-11.309 6.753-0.868 7.953c-0.328 3.002 0.818 5.136 3.436 6.4v0zM74.189 9.809l-0.354 3.241 9.722-5.669-2.22-5.654-3.364 1.886c-2.203 1.195-3.464 3.26-3.784 6.196zM104.239 32.101l-0.789 0.921c-2.106-1.903-3.031-4.229-2.775-6.978v0l2.156-23.159 1.214 0.113-2.155 23.16c-0.103 1.102 0.009 2.13 0.335 3.084 0.326 0.961 0.997 1.914 2.014 2.859zM106.881-4.381l-2.568 3.959-1.101-0.464 2.252-4.24zM112.727 8.631l7.47-4.899c2.699 3.509 3.897 7.09 3.594 10.744v0c-0.118 1.422-0.429 3.597-0.933 6.525-0.504 2.935-0.819 5.16-0.945 6.675v0c-0.188 2.266 0.612 4.238 2.399 5.918v0l-0.808 0.907c-1.699-1.539-2.635-3.229-2.81-5.07v0c-0.045-0.586-0.031-1.317 0.041-2.194v0c0.105-1.262 0.408-3.351 0.912-6.266 0.503-2.922 0.804-4.974 0.902-6.157v0c0.276-3.329-0.61-6.469-2.66-9.422v0l-7.289 4.764-1.885 22.722-1.206-0.1 2.008-24.197c0.168-2.02-0.466-3.621-1.9-4.804v0l0.762-0.96c1.768 1.431 2.55 3.369 2.348 5.814zM137.496 34.5l-0.383 1.165c-3.675-1.331-5.376-3.914-5.104-7.751v0l1.335-19.053-0.998-0.071c-0.791-0.056-1.788 0.327-2.989 1.151v0c-0.31 0.225-0.625 0.43-0.946 0.614v0l-0.606-1.066c2.001-1.355 3.544-1.994 4.628-1.916v0l1.067 0.076 2.851-7.818 1.133 0.422-2.727 7.485 6.653 0.473-0.086 1.217-6.773-0.482-0.748 10.514c-0.185 2.6-0.386 5.483-0.604 8.649-0.212 3.166 1.221 5.297 4.297 6.391zM153.716 31.514l0.665 1.064-5.579 3.819c-1.731-0.629-3.057-1.587-3.979-2.873-0.922-1.28-1.323-2.885-1.202-4.814v0l0.797-12.775c0.106-1.697 0.469-3.13 1.09-4.301 0.615-1.177 1.606-2.184 2.974-3.02v0l4.416-2.681 3.423 7.599-10.984 7.269-0.499 7.985c-0.188 3.014 1.055 5.092 3.729 6.234v0zM145.636 16.011l-0.203 3.253 9.449-6.113-2.479-5.545-3.274 2.04c-2.145 1.296-3.309 3.417-3.493 6.365zM162.872 11.94l5.5-5.072c1.561 1.963 2.674 3.994 3.339 6.09v0l-1.029 0.728c-0.495-1.795-1.325-3.486-2.491-5.075v0l-5.303 4.962-1.181 22.82-1.219-0.063 1.203-23.229c0.105-2.024-0.575-3.601-2.039-4.732v0l0.733-0.994c1.409 1.014 2.239 2.536 2.487 4.565zM177.075 12.762l7.26-5.207c2.843 3.393 4.19 6.921 4.039 10.585v0c-0.058 1.425-0.278 3.612-0.659 6.558-0.381 2.954-0.603 5.19-0.666 6.709v0c-0.093 2.271 0.788 4.209 2.644 5.813v0l-0.769 0.939c-1.761-1.467-2.768-3.116-3.02-4.948v0c-0.069-0.583-0.086-1.315-0.05-2.194v0c0.052-1.266 0.268-3.365 0.649-6.298 0.381-2.94 0.596-5.003 0.644-6.189v0c0.137-3.337-0.88-6.438-3.051-9.303v0l-7.084 5.064-0.934 22.781-1.209-0.05 0.995-24.26c0.083-2.025-0.616-3.598-2.098-4.72v0l0.721-0.991c1.826 1.356 2.689 3.26 2.588 5.711zM209.004 37.944l-0.728 0.97c-1.781-1.398-2.813-3.059-3.099-4.982v0l-6.607 4.702c-1.969-0.41-3.288-1.395-3.957-2.955v0c-0.225-0.527-0.327-1.14-0.307-1.839v0c0.001-0.047 0.002-0.087 0.003-0.12v0l0.372-12.935c0.088-3.065 1.256-5.403 3.503-7.012v0l7.885-5.616 0.885 0.516-0.675 23.49c-0.032 1.106 0.146 2.125 0.532 3.057 0.387 0.938 1.117 1.846 2.193 2.724zM195.891 20.82l-0.372 12.935c-0.052 1.799 0.855 2.986 2.718 3.559v0l6.842-4.845 0.654-22.741-6.693 4.9c-0.947 0.686-1.697 1.505-2.252 2.456-0.554 0.944-0.853 2.19-0.897 3.736zM222.035 37.956l-0.32 1.184c-3.741-1.13-5.579-3.619-5.514-7.464v0l0.304-19.098-1-0.017c-0.793-0.013-1.767 0.423-2.922 1.311v0c-0.297 0.242-0.601 0.463-0.912 0.664v0l-0.662-1.031c1.925-1.461 3.431-2.182 4.517-2.164v0l1.07 0.018 2.425-7.96 1.154 0.36-2.319 7.622 6.669 0.113-0.021 1.22-6.789-0.115-0.179 10.538c-0.044 2.606-0.09 5.496-0.137 8.669-0.041 3.173 1.505 5.223 4.636 6.15zM232.578 38.283l-0.711 0.982c-2.255-1.724-3.367-3.967-3.337-6.726v0l0.251-23.259 1.22 0.013-0.251 23.259c-0.012 1.107 0.184 2.122 0.587 3.046 0.403 0.931 1.15 1.826 2.241 2.685zM232.224 1.707l-2.235 4.156-1.137-0.373 1.898-4.409zM239.837 12.527l5.14-3.877c2.755 1.84 4.13 4 4.124 6.48v0l-0.032 13.11c-0.004 1.64-0.421 2.929-1.25 3.867v0c-0.361 0.406-0.832 0.828-1.413 1.266v0l-7.975 5.91-1.308-0.653 0.05-20.3c0.006-2.547 0.894-4.481 2.664-5.803zM244.973 10.129l-4.428 3.4c-1.436 1.063-2.157 2.665-2.162 4.804v0l-0.048 19.54 7.393-5.352c0.842-0.618 1.41-1.27 1.705-1.955 0.295-0.693 0.444-1.469 0.446-2.329v0l0.032-13.11c0.005-1.933-0.974-3.599-2.938-4.998zM257.085 14.146l6.98-5.576c3.015 3.241 4.543 6.694 4.583 10.361v0c0.015 1.427-0.091 3.621-0.319 6.584-0.228 2.969-0.333 5.214-0.317 6.733v0c0.025 2.273 1.005 4.163 2.942 5.669v0l-0.719 0.978c-1.835-1.373-2.926-2.968-3.273-4.785v0c-0.1-0.579-0.154-1.308-0.163-2.188v0c-0.014-1.267 0.093-3.375 0.321-6.324 0.228-2.956 0.335-5.027 0.323-6.214v0c-0.036-3.34-1.213-6.384-3.53-9.132v0l-6.811 5.424 0.247 22.799-1.21 0.013-0.263-24.279c-0.022-2.027-0.802-3.562-2.34-4.605v0l0.669-1.027c1.894 1.26 2.854 3.116 2.88 5.569zM290.276 37.639l-0.677 1.006c-1.851-1.304-2.968-2.909-3.352-4.814v0l-6.355 5.038c-1.988-0.307-3.356-1.223-4.105-2.746v0c-0.252-0.514-0.386-1.121-0.402-1.821v0c-0.001-0.047-0.002-0.087-0.003-0.12v0l-0.299-12.936c-0.071-3.066 0.974-5.461 3.135-7.185v0l7.583-6.016 0.911 0.469 0.543 23.493c0.026 1.106 0.256 2.115 0.69 3.025 0.435 0.917 1.212 1.786 2.331 2.607zM276.293 21.218l0.299 12.936c0.042 1.8 1.008 2.937 2.9 3.414v0l6.581-5.193-0.525-22.744-6.431 5.24c-0.91 0.735-1.617 1.591-2.121 2.57-0.504 0.972-0.739 2.231-0.703 3.777zM299.989-3.742l0.646 1.08c-2.357 1.357-3.873 3.345-4.548 5.961v0c-0.231 0.888-0.33 1.842-0.297 2.861v0l1.026 31.493-1.219 0.04-1.027-31.493c-0.106-3.245 0.975-5.992 3.244-8.24v0c0.672-0.669 1.397-1.236 2.175-1.702zM317.238 12.941l6.969-6.376c3.263 3.286 4.988 6.84 5.173 10.662v0l0.423 8.7c0.123 2.53-0.503 5.371-1.879 8.521-1.369 3.15-3.203 6.139-5.502 8.967v0l-0.938-0.765c3.436-4.158 5.667-8.375 6.694-12.65v0c0.332-1.411 0.467-2.749 0.406-4.014v0l-0.422-8.7c-0.164-3.369-1.484-6.376-3.962-9.018v0l-6.885 6.261 1.08 22.234-1.189 0.057-1.528-31.473c-0.158-3.256 0.869-6.019 3.082-8.289v0c0.661-0.68 1.377-1.258 2.148-1.736v0l0.663 1.069c-2.335 1.395-3.819 3.406-4.453 6.033v0c-0.217 0.892-0.301 1.847-0.251 2.866v0zM346.571 30.725l0.791 0.974-5.066 4.478c-1.795-0.411-3.229-1.198-4.302-2.362-1.073-1.157-1.668-2.7-1.786-4.63v0l-0.782-12.776c-0.104-1.697 0.08-3.164 0.553-4.402 0.465-1.244 1.325-2.365 2.579-3.364v0l4.052-3.203 4.333 7.119-10.006 8.567 0.489 7.985c0.184 3.014 1.674 4.924 4.468 5.728v0zM336.644 16.335l0.199 3.254 8.625-7.231-3.143-5.197-2.998 2.427c-1.969 1.55-2.863 3.799-2.683 6.747zM367.667 33.425l-0.626 1.038c-1.913-1.211-3.108-2.759-3.586-4.642v0l-6.099 5.346c-2-0.209-3.412-1.055-4.235-2.54v0c-0.277-0.501-0.441-1.101-0.492-1.799v0c-0.003-0.047-0.006-0.086-0.008-0.12v0l-0.938-12.906c-0.222-3.059 0.703-5.502 2.776-7.33v0l7.276-6.384 0.933 0.423 1.704 23.438c0.08 1.104 0.36 2.099 0.838 2.987 0.479 0.894 1.298 1.724 2.457 2.489zM352.889 17.715l0.939 12.906c0.13 1.795 1.152 2.884 3.064 3.266v0l6.317-5.512-1.649-22.691-6.164 5.552c-0.873 0.779-1.536 1.669-1.991 2.671-0.456 0.996-0.627 2.265-0.516 3.808zM375.323-8.386l0.698 1.046c-2.287 1.472-3.703 3.532-4.248 6.179v0c-0.187 0.898-0.239 1.856-0.155 2.873v0l2.582 31.404-1.216 0.1-2.582-31.404c-0.266-3.236 0.678-6.032 2.832-8.391v0c0.638-0.701 1.334-1.304 2.089-1.807zM389.831 31.285l-0.192 1.212c-3.841-0.724-5.935-3.001-6.281-6.832v0l-1.741-19.02-0.996 0.09c-0.79 0.071-1.712 0.61-2.765 1.615v0c-0.27 0.272-0.548 0.525-0.835 0.759v0l-0.77-0.955c1.758-1.658 3.178-2.537 4.26-2.634v0l1.066-0.097 1.56-8.174 1.186 0.235-1.491 7.826 6.643-0.601 0.11 1.215-6.763 0.612 0.95 10.497c0.235 2.596 0.499 5.474 0.791 8.634 0.299 3.159 2.055 5.032 5.268 5.618zM395.404 7.225l6.636-6.721c3.426 3.116 5.328 6.578 5.708 10.385v0l0.863 8.668c0.251 2.521-0.23 5.389-1.444 8.605-1.207 3.215-2.887 6.294-5.04 9.235v0l-0.976-0.717c3.22-4.327 5.235-8.651 6.044-12.973v0c0.26-1.426 0.327-2.769 0.202-4.03v0l-0.863-8.667c-0.334-3.357-1.806-6.292-4.415-8.805v0l-6.558 6.602 2.207 22.15-1.185 0.118-3.123-31.354c-0.323-3.244 0.563-6.056 2.657-8.435v0c0.626-0.712 1.312-1.327 2.058-1.843v0l0.716 1.034c-2.261 1.512-3.642 3.595-4.141 6.251v0c-0.171 0.901-0.207 1.86-0.106 2.875v0zM427.041 8.237l1.529 12.709c0.361 2.998 1.959 4.817 4.796 5.456v0l4.428-4.38 0.847 0.926-4.795 4.766c-1.816-0.305-3.294-1.007-4.434-2.106-1.139-1.092-1.823-2.598-2.054-4.517v0l-1.528-12.708c-0.203-1.688-0.105-3.163 0.294-4.427 0.391-1.269 1.184-2.439 2.378-3.509v0l3.857-3.435 4.623 6.696-0.8 0.64-4.007-5.602-2.85 2.599c-1.875 1.662-2.636 3.96-2.284 6.892zM458.793 23.511l-0.565 1.073c-1.98-1.097-3.264-2.572-3.851-4.425v0l-5.776 5.693c-2.009-0.092-3.468-0.854-4.376-2.287v0c-0.306-0.484-0.505-1.073-0.596-1.768v0c-0.006-0.046-0.011-0.086-0.016-0.119v0l-1.691-12.829c-0.401-3.04 0.38-5.534 2.343-7.48v0l6.891-6.799 0.956 0.369 3.071 23.298c0.145 1.097 0.482 2.075 1.012 2.933 0.531 0.865 1.397 1.645 2.598 2.341zM443.122 8.691l1.691 12.829c0.235 1.785 1.319 2.812 3.25 3.082v0l5.984-5.872-2.972-22.555-5.829 5.902c-0.826 0.828-1.436 1.756-1.832 2.783-0.397 1.021-0.494 2.298-0.292 3.831zM461.708-1.406l4.418-6.038c1.91 1.625 3.394 3.403 4.452 5.332v0l-0.87 0.913c-0.832-1.665-1.973-3.165-3.423-4.5v0l-4.247 5.893 3.244 22.618-1.208 0.173-3.301-23.024c-0.288-2.006-1.259-3.423-2.913-4.25v0l0.527-1.116c1.579 0.723 2.686 2.056 3.321 3.999zM486.828 15.098l0.876 0.898-4.642 4.916c-1.825-0.248-3.324-0.902-4.497-1.964-1.173-1.055-1.905-2.538-2.197-4.45v0l-1.93-12.653c-0.256-1.681-0.205-3.158 0.153-4.434 0.351-1.281 1.106-2.475 2.266-3.583v0l3.746-3.555 4.957 6.699-9.192 9.434 1.206 7.908c0.455 2.985 2.111 4.753 4.967 5.302v0zM475.644 1.661l0.492 3.223 7.937-7.979-3.599-4.893-2.766 2.688c-1.821 1.721-2.509 4.041-2.064 6.961z" opacity="1" transform="matrix(1,0,0,1,0,0)" fill="black" class="wordmark-text-0" id="SvgjsPath1614"></path></svg></g></svg></g></svg></g></svg></g><g transform="matrix(1,0,0,1,173.5665539912779,0)"><svg viewBox="0 0 48.38689201744416 48.38491016645021" height="48.38491016645021" width="48.38689201744416"><g><svg xmlns="http://www.w3.org/2000/svg" xmlns:xlink="http://www.w3.org/1999/xlink" version="1.1" x="0" y="0" viewBox="25.584 24.502 48.83 48.828" enable-background="new 0 0 100 100" xml:space="preserve" height="48.38491016645021" width="48.38689201744416" class="icon-icon-0" data-fill-palette-color="accent" id="SvgjsSvg1613"><path d="M50 24.502C36.516 24.502 25.584 35.434 25.584 48.916 25.584 62.404 36.516 73.33 50 73.33 63.486 73.33 74.414 62.404 74.414 48.916 74.414 35.434 63.486 24.502 50 24.502M66.82 53.232H54.363V65.699H45.732V53.232H33.273V44.601H45.732V32.143H54.363V44.602H66.82z" fill="black"></path></svg></g></svg></g><g></g></svg></g><defs><mask></mask></defs></svg><rect width="395.52" height="99.91251121414038" fill="black" stroke="none" visibility="hidden"></rect></g></mask></svg><rect width="395.52" height="99.91251121414038" fill="black" stroke="none" visibility="hidden"></rect></g></mask><linearGradient x1="0" x2="1" y1="0.5" y2="0.5" id="c9bcdc25-220a-439c-b214-6567a8d4d70a"><stop stop-color="#ffa62e" offset="0"></stop><stop stop-color="#f71b3d" offset="1"></stop></linearGradient><rect width="395.52" height="99.91251121414038" fill="#ffffff" mask="url(#d3df199c-b21c-4377-8d8f-d1bb93421c26)" data-fill-palette-color="accent"></rect></svg><rect width="395.52" height="99.91251121414038" fill="none" stroke="none" visibility="hidden"></rect></g></svg></g></svg>